/* XPM */
static char *system_power[] = {
/* columns rows colors chars-per-pixel */
"24 24 3 1 ",
"  c #0080FF",
". c white",
"X c None",
/* pixels */
"XXXXXXXXXXXXXXXXXXXXXXXX",
"XXXXXXXXXXXXXXXXXXXXXXXX",
"XXXXXXXXXXXXXXXXXXXXXXXX",
"XXX                  XXX",
"XXX                  XXX",
"XXX                  XXX",
"XXX                  XXX",
"XXX    ..........    XXX",
"XXX    ..........    XXX",
"XXX    ..........    XXX",
"XXX    ..........    XXX",
"XXX    ..........    XXX",
"XXX    ..........    XXX",
"XXX    ..........    XXX",
"XXX    ..........    XXX",
"XXX    ..........    XXX",
"XXX    ..........    XXX",
"XXX                  XXX",
"XXX                  XXX",
"XXX                  XXX",
"XXX                  XXX",
"XXXXXXXXXXXXXXXXXXXXXXXX",
"XXXXXXXXXXXXXXXXXXXXXXXX",
"XXXXXXXXXXXXXXXXXXXXXXXX"
};
