/* XPM */
static char *network_no[] = {
/* columns rows colors chars-per-pixel */
"24 24 5 1 ",
"  c red",
". c #FF5F5F",
"X c #FF6A6A",
"o c white",
"O c None",
/* pixels */
"OOOOOOOOOOOOOOOOOOOOOOOO",
"OOOOOOOOOOOOOOOOOOOOOOOO",
"OOOOOOOOOooooooOOOOOOOOO",
"OOO  OOOOooooooOOOOOOOOO",
"OOOO  OOOooooooOOOOOOOOO",
"OOOOO  OOooooooOOOOOOOOO",
"OOOOOO  OOoooooOOOOOOOOO",
"OOOOOOO  OOooooOOOOOOOOO",
"OOOOOOOO  OOOOOOOOOOOOOO",
"OOOOOOOOO  OOOOOOOOOOOOO",
"OOOOOOOOOX  OOOOOOOOOOOO",
"OOoooooooo.  OOoooooooOO",
"OOOOOooOOOO  OOOOooOOOOO",
"OOOOOooOOOOO  OOOooOOOOO",
"OOOOOooOOOOOO  OOooOOOOO",
"OOOooooooOOOOO  OOOOOOOO",
"OOOooooooOOOOOO  OOOOOOO",
"OOOooooooOOOOOOO  OOOOOO",
"OOOooooooOOOOOOOO  OOOOO",
"OOOooooooOOOOOOOOO  OOOO",
"OOOooooooOOOOOOOOOOOOOOO",
"OOOOOOOOOOOOOOOOOOOOOOOO",
"OOOOOOOOOOOOOOOOOOOOOOOO",
"OOOOOOOOOOOOOOOOOOOOOOOO"
};
